<svg width="20" height="20" fill="none" xmlns="http://www.w3.org/2000/svg"><g clip-path="url(#clip0)"><path d="M7.37 10.543c-1.16 0-2.102.94-2.102 2.1V17.9a2.101 2.101 0 004.202 0v-5.255c0-1.16-.942-2.101-2.1-2.101zM.016 12.643a2.103 2.103 0 004.205 0V10.54H2.12h-.002c-1.16 0-2.102.942-2.102 2.103z" fill="#E91E63"/><path d="M7.372-.001h-.003a2.103 2.103 0 000 4.205h2.1V2.102v-.005C9.47.938 8.53 0 7.373 0zM2.104 9.476H7.37a2.103 2.103 0 000-4.205H2.104a2.103 2.103 0 000 4.205z" fill="#00BCD4"/><path d="M17.88 5.27c-1.158 0-2.097.939-2.097 2.098v2.107h2.1a2.103 2.103 0 000-4.205h-.002zM10.534 2.102v5.27a2.101 2.101 0 004.202 0v-5.27a2.101 2.101 0 00-4.202 0z" fill="#4CAF50"/><path d="M14.735 17.897c0-1.16-.941-2.101-2.101-2.101h-2.1v2.102a2.1 2.1 0 004.2-.001zM17.9 10.54h-5.266a2.103 2.103 0 000 4.205H17.9a2.103 2.103 0 000-4.205z" fill="#FF9800"/></g><defs><clipPath id="clip0"><path fill="#fff" d="M0 0h20v20H0z"/></clipPath></defs></svg>