<?xml version="1.0" standalone="no"?>
<!DOCTYPE svg PUBLIC "-//W3C//DTD SVG 20010904//EN"
 "http://www.w3.org/TR/2001/REC-SVG-20010904/DTD/svg10.dtd">
<svg version="1.0" xmlns="http://www.w3.org/2000/svg"
 width="260.000000pt" height="260.000000pt" viewBox="0 0 260.000000 260.000000"
 preserveAspectRatio="xMidYMid meet">
<metadata>
Created by potrace 1.11, written by Peter Selinger 2001-2013
</metadata>
<g transform="translate(0.000000,260.000000) scale(0.100000,-0.100000)"
fill="#000000" stroke="none">
<path d="M1170 2590 c-112 -11 -276 -54 -378 -98 -164 -71 -337 -193 -447
-315 -86 -95 -237 -328 -222 -343 2 -2 29 1 61 7 71 13 175 -5 293 -50 127
-49 186 -111 243 -254 l23 -59 47 189 c73 288 114 403 159 451 27 27 85 29
151 4 68 -26 74 -52 66 -287 -4 -104 -10 -218 -15 -252 -4 -35 -5 -63 -2 -63
3 1 24 40 46 87 52 113 143 266 191 322 34 40 40 43 75 38 59 -8 113 -38 117
-65 2 -13 -17 -96 -42 -185 -97 -346 -126 -666 -76 -838 50 -174 255 -207 519
-83 51 24 98 44 102 44 20 0 7 -69 -24 -130 -48 -94 -74 -105 -242 -105 -123
0 -133 2 -188 29 -69 33 -190 127 -236 182 -17 22 -42 70 -54 109 -19 61 -22
92 -22 235 1 168 10 261 46 453 12 60 18 111 15 115 -18 18 -133 -165 -173
-276 -37 -99 -80 -322 -104 -532 -23 -202 -26 -210 -86 -210 -35 0 -73 29 -73
55 0 9 7 75 15 148 32 284 59 1047 36 1033 -32 -20 -110 -227 -166 -441 -39
-149 -43 -180 -85 -560 -17 -154 -33 -290 -36 -302 -9 -43 -100 -37 -124 8 -7
12 -3 83 11 216 26 252 28 500 5 602 -17 77 -59 170 -102 226 -50 66 -134 75
-274 31 -131 -42 -179 -76 -180 -128 0 -4 26 8 59 27 64 38 83 46 159 69 76
22 64 5 -15 -23 -93 -32 -202 -97 -213 -127 -5 -13 -12 -54 -15 -91 -4 -38 -8
-79 -11 -93 -4 -22 -1 -21 31 15 19 22 58 75 87 118 28 42 56 77 62 77 42 0
91 -75 82 -123 -14 -67 -107 -177 -216 -254 -26 -18 -40 -36 -40 -50 0 -31 8
-29 66 12 117 83 234 227 234 287 0 10 5 18 10 18 17 0 11 -58 -9 -98 -29 -57
-107 -139 -193 -203 -42 -31 -82 -59 -88 -61 -7 -2 -6 -25 4 -75 91 -429 413
-795 831 -946 147 -52 257 -70 435 -70 135 0 183 4 265 22 255 58 458 166 635
339 l85 83 -80 -54 c-106 -71 -171 -107 -281 -155 -115 -51 -273 -104 -293
-99 -9 2 11 12 44 22 280 84 615 281 706 416 67 99 65 106 -12 35 -281 -260
-696 -455 -969 -456 -214 0 -374 111 -396 274 -9 61 17 65 35 5 15 -48 74
-117 117 -135 17 -7 69 -18 117 -24 245 -33 568 85 882 323 96 73 298 268 364
352 38 47 50 73 59 120 18 93 25 235 17 311 l-7 69 -45 -50 c-24 -28 -99 -115
-167 -195 -138 -163 -216 -240 -243 -240 -13 0 -6 11 25 36 23 20 97 102 164
182 67 81 154 181 193 222 61 64 71 79 65 100 -6 24 -9 23 -76 -45 -38 -38
-121 -133 -185 -210 -152 -182 -218 -245 -259 -245 -36 0 -97 29 -125 60 -16
17 -20 36 -20 85 0 35 -3 61 -7 58 -5 -2 -8 -9 -8 -15 0 -20 -99 -215 -125
-246 -31 -37 -59 -40 -112 -15 -50 23 -67 69 -60 158 21 257 180 565 313 605
37 11 46 10 90 -11 27 -13 51 -24 54 -26 3 -2 10 11 15 29 9 29 15 33 48 36
49 4 87 -19 87 -54 0 -14 -30 -100 -66 -191 -36 -91 -74 -193 -85 -227 -20
-64 -25 -136 -10 -136 9 0 92 91 228 250 82 97 166 180 238 236 l39 32 -18 58
c-56 181 -176 375 -320 519 -238 236 -527 363 -861 378 -60 3 -144 2 -185 -3z
m59 -702 c1 -75 -3 -129 -9 -133 -7 -4 -10 47 -9 147 0 95 4 145 9 133 5 -11
9 -77 9 -147z m411 -36 c0 -16 -20 -98 -44 -184 -71 -247 -91 -380 -91 -600 0
-201 -14 -223 -23 -36 -8 189 23 411 93 661 25 86 45 164 45 172 0 8 5 15 10
15 6 0 10 -13 10 -28z m-694 -163 c-8 -35 -30 -122 -50 -194 -51 -184 -50
-181 -113 -753 -13 -128 -19 -155 -35 -163 -21 -11 -21 -11 -8 27 5 16 28 189
50 384 22 195 49 393 60 440 20 81 72 257 91 309 17 44 20 14 5 -50z m1324
-59 c0 -29 -109 -312 -138 -357 -34 -55 -27 -13 20 105 27 70 62 162 76 204
29 82 42 97 42 48z m-970 -112 c-4 -18 -19 -62 -33 -98 -36 -94 -84 -338 -107
-545 -16 -140 -24 -183 -37 -192 -30 -23 -45 -13 -19 12 8 8 17 36 20 62 48
394 69 522 102 628 36 113 95 220 74 133z m600 -486 c0 -20 -65 -132 -83 -144
-33 -21 -32 -2 2 47 21 30 44 68 51 85 14 33 30 40 30 12z m245 -298 c-25 -84
-66 -139 -119 -157 -25 -9 -46 -12 -46 -6 0 5 7 9 17 9 39 0 100 91 137 204 4
13 10 16 16 10 7 -7 5 -28 -5 -60z m-538 -600 c-3 -3 -12 -4 -19 -1 -8 3 -5 6
6 6 11 1 17 -2 13 -5z"/>
<path d="M1918 1539 c-92 -98 -198 -359 -198 -484 l1 -40 20 24 c58 70 204
329 263 469 l35 82 -36 0 c-31 0 -44 -8 -85 -51z m-33 -176 c-37 -70 -71 -132
-76 -138 -36 -38 48 153 101 230 56 81 45 41 -25 -92z"/>
</g>
</svg>
